<?xml version="1.0" encoding="utf-8"?>
<!-- Generator: Adobe Illustrator 16.0.0, SVG Export Plug-In . SVG Version: 6.00 Build 0)  -->
<!DOCTYPE svg PUBLIC "-//W3C//DTD SVG 1.1//EN" "http://www.w3.org/Graphics/SVG/1.1/DTD/svg11.dtd">
<svg version="1.1" xmlns="http://www.w3.org/2000/svg" xmlns:xlink="http://www.w3.org/1999/xlink" x="0px" y="0px"
	 width="538.583px" height="538.583px" viewBox="0 0 538.583 538.583" enable-background="new 0 0 538.583 538.583"
	 xml:space="preserve">
<g id="Layer_2">
	<g>
		<path d="M338.776,178.033c0,0,0.038-0.255,0.005-0.702C338.785,177.773,338.776,178.033,338.776,178.033z"/>
		<path d="M331.526,162.283c-7.75-2.75-23.25,1.5-22.5-8.5s4-11.25,4-11.25s-8,3-10.5,9.25s-9,9-14.25,9.5s-5.25-1.75-0.75-11.75
			s3.25-19.5,1.5-23s-5-4.75-5-4.75s4.25,13.5-6,24.75c-10.251,11.25-20.001,13.75-26.501,4.25s-9.25-19-8.25-23.25s3-8.5,3-8.5
			s-11.15,6.5-3.2,34.5s8.267,40.507-2.423,36.507s-9.333-15.167-8.833-18.917s3.5-8.083,3.5-8.083s-13.205,8.219-10.955,23.469
			s21.289,20.865,19.289,27.865s-18.307,3.376-24.708,11.416c-5.972,7.5-6.375,15-0.625,21.25s15.207,3.993,15.207,3.993
			s-10.75-1-10-10s8.355-10.489,14.793-8.659c8.261,2.35,20.472,17.23,24.457,26.409c4.438,10.224,1.638,4.624,4.077,13.94
			c0,0,1.494-10.104-0.117-14.699c-2.458-7.013-11.21-14.741-9.71-24.241s9.289-9.75,10.395-19s-1.395-14.25-1.395-14.25
			s-3,11.5-5.75,6.75s-1.595-24.25,2.202-31c3.798-6.75,16.299-10,26.049-9.5s36-3.75,43.5,1.5c5.741,4.019,6.646,7.59,6.755,9.048
			C338.754,174.601,338.196,164.65,331.526,162.283z"/>
		<path d="M5.694,382.063c4.39-0.907,8.789-1.693,13.185-2.519c4.394-0.85,8.798-1.562,13.2-2.319l13.205-2.247l13.222-2.035
			l13.222-2.035c4.404-0.714,8.822-1.255,13.233-1.879l26.477-3.633c4.412-0.617,8.833-1.12,13.249-1.686l13.251-1.64l13.26-1.539
			c4.42-0.501,8.837-1.054,13.262-1.51l13.268-1.425c4.424-0.464,8.844-0.977,13.271-1.395l26.555-2.605l13.315,8.888
			c-0.069-0.209-0.053-0.163-0.054-0.171c-0.005-0.014,0.004,0.007,0.018,0.035l0.076,0.173l0.217,0.468
			c0.163,0.342,0.356,0.711,0.557,1.085c0.413,0.752,0.89,1.519,1.391,2.274c1.029,1.507,2.2,2.96,3.489,4.301
			c2.577,2.697,5.639,4.904,8.991,6.71c1.696,0.88,3.46,1.674,5.315,2.336c1.87,0.632,3.779,1.219,5.794,1.613
			c1.987,0.45,4.07,0.714,6.17,0.938c1.054,0.104,2.134,0.14,3.199,0.222l3.26,0.07l3.555-0.073
			c0.971-0.086,1.883-0.112,2.904-0.211c2.102-0.225,4.184-0.489,6.172-0.939c2.016-0.394,3.924-0.981,5.795-1.613
			c1.855-0.662,3.619-1.456,5.316-2.336c3.367-1.783,6.42-4.01,9.002-6.703c1.289-1.342,2.461-2.796,3.49-4.304
			c0.502-0.757,0.979-1.523,1.393-2.276c0.199-0.374,0.395-0.744,0.557-1.086l0.217-0.469l0.076-0.173
			c0.014-0.029,0.023-0.049,0.018-0.035c0,0.007,0.016-0.039-0.053,0.17l13.297-8.876l26.555,2.614l13.27,1.402l13.268,1.422
			l13.262,1.515l13.26,1.536l13.252,1.644c4.416,0.566,8.838,1.059,13.248,1.689l26.477,3.623c4.412,0.615,8.83,1.171,13.234,1.88
			l13.223,2.028L493.297,375l13.207,2.241c4.4,0.753,8.805,1.467,13.199,2.312c4.396,0.822,8.795,1.605,13.186,2.51l0.09,0.019
			c0.404,0.084,0.664,0.479,0.58,0.883c-0.076,0.372-0.416,0.621-0.785,0.595l-53.219-3.788l-26.607-1.926l-26.602-1.986
			l-106.41-7.946l1.42-0.948c-0.973,2.68-2.25,4.97-3.697,7.257c-1.465,2.249-3.113,4.375-4.932,6.345
			c-3.633,3.945-7.949,7.239-12.641,9.812c-2.359,1.259-4.799,2.368-7.307,3.284c-2.518,0.884-5.074,1.669-7.682,2.209
			c-2.596,0.599-5.232,0.962-7.869,1.256c-1.322,0.139-2.666,0.202-3.998,0.304l-3.94,0.103l-3.971-0.101
			c-1.322-0.103-2.647-0.165-3.967-0.303c-2.638-0.294-5.274-0.657-7.87-1.256c-2.607-0.54-5.164-1.325-7.68-2.209
			c-2.509-0.916-4.947-2.026-7.309-3.284c-4.691-2.574-9.007-5.868-12.641-9.813c-1.818-1.971-3.467-4.096-4.931-6.346
			c-1.449-2.286-2.726-4.577-3.699-7.257l1.423,0.95l-106.41,7.944l-26.603,1.986l-26.607,1.927L5.808,383.56
			c-0.412,0.029-0.769-0.28-0.798-0.692c-0.027-0.378,0.232-0.71,0.594-0.785L5.694,382.063z"/>
		<path d="M217.681,318.011c-45.797,1.704-61.412,20.576-116.447,36.581c-40.627,11.815-72.053,14.499-72.053,14.499
			s46.833-0.666,103.167-21.666s81.014-21.185,97.567-18.004c19.1,3.67,21.1,26.67,29.102,29.084
			c7.282,2.196,10.275,13.92,10.275,13.92S269.291,316.091,217.681,318.011z"/>
		<path d="M437.348,354.592c-55.035-16.005-70.65-34.878-116.447-36.581c-51.61-1.92-51.61,54.414-51.61,54.414
			s2.993-11.725,10.274-13.92c8.002-2.414,10.002-25.414,29.104-29.084c16.553-3.181,41.232-2.997,97.566,18.004
			c56.334,21,103.166,21.666,103.166,21.666S477.975,366.407,437.348,354.592z"/>
		<path d="M257.625,369.091c0,0-6.333-4.666-8.667-9.333c-2.333-4.667-11.333-24-34-24.333c-22.667-0.334-37,10.333-56.333,14.666
			c-19.334,4.334-32.667,6.334-32.667,6.334s37.333-3.129,63.333-11.231s36.001-3.103,41.667,4.231
			C236.625,356.758,257.625,369.091,257.625,369.091z"/>
		<path d="M280.959,369.091c0,0,6.332-4.666,8.666-9.333s11.334-24,34-24.333c22.668-0.334,37,10.333,56.334,14.666
			c19.334,4.334,32.666,6.334,32.666,6.334s-37.332-3.129-63.332-11.231s-36.002-3.103-41.668,4.231
			C301.959,356.758,280.959,369.091,280.959,369.091z"/>
		<path d="M267.375,334.004c0,0-0.977-22.059-17.981-29.046c-14.454-5.939-37.436-2.284-57.322,3.44
			c-13.436,3.867-28.173,11.214-49.554,9.283c-24.43-2.205-39.058-12.166-39.058-12.166s6.756,9.053,27.375,14.151
			s45.241-0.872,59.397-4.722c12.11-3.293,52.473-12.531,67.75,3.403C267.41,328.182,267.375,334.004,267.375,334.004z"/>
		<path d="M271.208,334.004c0,0,0.977-22.059,17.98-29.046c14.455-5.939,37.438-2.284,57.322,3.44
			c13.436,3.867,28.174,11.214,49.553,9.283c24.43-2.205,39.059-12.166,39.059-12.166s-6.756,9.053-27.375,14.151
			c-20.617,5.099-45.24-0.872-59.396-4.722c-12.109-3.293-52.473-12.531-67.75,3.403
			C271.172,328.182,271.208,334.004,271.208,334.004z"/>
		<path d="M265.184,292.845c0,0,5.191-15.061-8.309-23.811s-20.676-5.98-34.346-8.889c-23.5-5-15.735-25.051-15.735-25.051
			s-4.579,2-5.75,10.25c-0.827,5.826,1.171,9.5,1.171,9.5s-13.854-10.632-10.671-29.5c2.5-14.818,13.25-14.5,13.25-14.5
			s-6.667-3-13.708,1.25c-7.042,4.25-8.542,14.5-8.542,14.5s-14.5-16.25-1.5-31c9.165-10.398,18.75-0.5,18.75-0.5
			s-1.165-11.475-12.5-11.75c-13.25-0.321-22.25,12.75-23.25,23.25c-0.69,7.256,0.75,14.5,0.75,14.5s-7-8.5-16.75-5
			c-8.208,2.947-9,9.25-9,9.25s8.255-4.046,13.728-2.773c9.772,2.273,16.772,12.273,12.772,18.773s-13,3.5-13,3.5
			s3.5,5.5,17.75,2.25s14.25-2.5,20.75,5s4.5,8.453,9.75,16.102s15.75,7.648,15.75,7.648s-12.25-6.75-6.25-10.5
			s28.743,0.045,43.5,11.25C266.165,285.989,265.184,292.845,265.184,292.845z"/>
		<path d="M190.317,281.317c-4.943-5.18-0.552-17.059-0.552-17.059s-7.562,5.729-6.825,15.204
			c0.817,10.517-13.455,12.744-19.622,10.077c-8.795-3.804-9.628-12.267-9.628-19.077c0-8.75,7.5-11.5,10.75-11.5
			s5.75,3.75,5.75,3.75s-2.745-9.439-10.517-9.443c-11.233-0.005-12.483,11.888-12.483,11.888s-3.036-5.164-15.5-6.944
			c-10.5-1.5-17.25,4.75-17.25,4.75s20.75-2.5,29.75,13.25s3.964,17.728,0,20.25c-11,7-23.539-0.28-23.539-0.28
			s7.811,10.283,22,7.19c22.957-5.005,58.825-17.255,82.319-17.507c23.348-0.25,37.47,12.097,40.97,20.847
			c2.793,6.982,2.25,14.25,2.25,14.25s5.75-19.5-11-32.75s-34.812-6.116-46.206-5.173
			C205.092,283.528,194.399,285.595,190.317,281.317z"/>
		<path d="M269.292,323.652c0,0,8.623-40.939,39.373-39.939s34.271,8.818,49.068,13.672c12.432,4.078,26.932-1.547,24.682,4.578
			c-1.844,5.022-8.25,7.75-8.25,7.75s11.75,2.75,19.5-10.25s16.75,0,30.75-6.75s15.75-17.5,15.75-17.5s-9.25,10.75-21,9.5
			s-15-14-15-14s-5,13-17.25,15.75s-22.25,4.89-47.25-3.806c-25-8.694-46-7.194-57.75,6.556S269.292,323.652,269.292,323.652z"/>
		<path d="M271.208,304.373c0,0,4.51-35.562,33.76-38.312s40.25,16.75,61.25,14.5s23-17.25,22.25-24s-6.5-13.5-6.5-13.5s3,13-5,21.5
			s-23.5,10-35,4.25s-17-6.5-17-6.5s5.51-12.914,25.018-15.605c19.334-2.666,33.482-14.145,33.482-14.145s-24,10.25-28.25-2.5
			c-4.25-12.75,6.25-15.371,13.25-27.25c8.25-14-0.25-31-0.25-31s-1,16.738-3.25,20.744s-2.25,2.756-2.25,2.756s-2.25-3.5-4.5-5
			s-6.75-0.25-6.75-0.25s9,7.5,2.75,14.25s-17.75,7-19.75,0.25s6.75-14.25,6.75-14.25s-5.961-1.001-9.75,2.244
			c-4.518,3.87-3.834,8.881-3.834,8.881s-6.992-2.379-7.666-8.881c-0.75-7.244,0.75-16.244,0.75-16.244s-9.25,20.5-4,29.75
			c7.504,13.222,22,10,22.5,23.5c0.297,8.01-2.5,20-17.5,23.5s-34.5,8-44.186,23C270.672,286.681,271.208,304.373,271.208,304.373z"
			/>
		<path d="M269.746,304.373c0,0-3.75-36,10.001-48c13.75-12,28-9.597,33-19.173c5-9.577,2.5-14.077,2.5-14.077
			s-3.25,17.403-17,14.077c-13.75-3.327-3.25-18.327,3.5-31.577s4-26.75,4-26.75s-3.092,21.75-13.172,24.25
			c-10.078,2.5-16.078-10.5-16.328-15.5s-0.25-8.75-0.25-8.75s-6.251,12,0.5,24.5c6.75,12.5,12.25,31,2.5,45.75
			c-9.751,14.75-10.751,24.75-11.501,29S269.746,304.373,269.746,304.373z"/>
	</g>
</g>
<g id="Layer_3">
	<path d="M269.292,82.867c-102.794,0-186.424,83.63-186.424,186.426c0,28.765,6.553,56.027,18.237,80.378
		c5.224-1.396,10.477-2.722,15.412-4.915c-4.786-9.65-8.676-19.819-11.581-30.391c-4.348-4.754-7.084-11.118-11.285-16.019
		c3.156-0.631,5.517,1.922,8.337,3.391c-2.036-10.508-3.12-21.351-3.12-32.444c0-93.973,76.452-170.426,170.424-170.426
		c93.708,0,169.986,76.026,170.414,169.638c1.809-3.006,2.945-6.438,2.945-10.158c7.976,9.748,4.951,24.202-4.19,31.543
		c-0.514,4.216-1.179,8.386-1.993,12.503c3.062-1.378,6.122-3.209,9.184-5.046c-3.956,5.538-6.049,12.315-11.696,15.9
		c-3.029,11.328-7.191,22.199-12.369,32.475c5.147,1.618,10.24,3.406,15.413,4.935c11.983-24.601,18.717-52.209,18.717-81.363
		C455.715,166.498,372.086,82.867,269.292,82.867z"/>
	<path d="M400.638,377.746c-31.283,37.822-78.544,61.97-131.347,61.97c-52.556,0-99.606-23.935-130.891-61.453
		c-2.247,0.624-4.808,0.624-6.9,0.666c-2.346,0.047-4.778,0.011-7.201,0.065c-1.771,0.17-3.543,0.315-5.321,0.403
		c33.958,46.235,88.678,76.318,150.313,76.318c61.707,0,116.494-30.146,150.441-76.474
		C413.374,378.678,407.011,378.141,400.638,377.746z"/>
</g>
</svg>
