<?xml version="1.0" encoding="utf-8"?>
<!-- Generator: Adobe Illustrator 16.0.0, SVG Export Plug-In . SVG Version: 6.00 Build 0)  -->
<!DOCTYPE svg PUBLIC "-//W3C//DTD SVG 1.1//EN" "http://www.w3.org/Graphics/SVG/1.1/DTD/svg11.dtd">
<svg version="1.1" xmlns="http://www.w3.org/2000/svg" xmlns:xlink="http://www.w3.org/1999/xlink" x="0px" y="0px"
	 width="538.583px" height="538.583px" viewBox="0 0 538.583 538.583" enable-background="new 0 0 538.583 538.583"
	 xml:space="preserve">
<g id="Layer_1">
	<path d="M5.694,327.703c4.39-0.907,8.789-1.693,13.185-2.519c4.394-0.85,8.798-1.562,13.2-2.319l13.205-2.247l13.222-2.035
		l13.222-2.035c4.404-0.714,8.822-1.255,13.233-1.879l26.477-3.633c4.412-0.617,8.833-1.12,13.249-1.686l13.251-1.64l13.26-1.539
		c4.42-0.501,8.837-1.054,13.262-1.51l13.268-1.425c4.424-0.464,8.844-0.977,13.271-1.395l26.555-2.605l13.315,8.888
		c-0.069-0.209-0.053-0.163-0.054-0.171c-0.005-0.014,0.004,0.007,0.018,0.035l0.076,0.173l0.217,0.468
		c0.163,0.342,0.356,0.711,0.557,1.085c0.413,0.752,0.89,1.519,1.391,2.274c1.029,1.507,2.2,2.96,3.489,4.301
		c2.577,2.697,5.639,4.904,8.991,6.71c1.696,0.88,3.46,1.674,5.315,2.336c1.87,0.632,3.779,1.219,5.794,1.613
		c1.987,0.45,4.07,0.714,6.17,0.938c1.054,0.104,2.134,0.14,3.199,0.222l3.26,0.07l3.555-0.073c0.971-0.086,1.883-0.112,2.904-0.211
		c2.101-0.225,4.184-0.489,6.171-0.939c2.016-0.394,3.925-0.981,5.796-1.613c1.854-0.662,3.619-1.456,5.315-2.336
		c3.367-1.783,6.421-4.01,9.002-6.703c1.29-1.342,2.461-2.796,3.49-4.304c0.502-0.757,0.979-1.523,1.393-2.276
		c0.2-0.374,0.395-0.744,0.558-1.086l0.217-0.469l0.076-0.173c0.013-0.029,0.022-0.049,0.018-0.035
		c-0.001,0.007,0.015-0.039-0.054,0.17l13.297-8.876l26.555,2.614l13.27,1.402l13.269,1.422l13.262,1.515l13.26,1.536l13.252,1.644
		c4.415,0.566,8.837,1.059,13.247,1.689l26.478,3.623c4.412,0.615,8.829,1.171,13.233,1.88l13.223,2.028l13.222,2.031l13.206,2.241
		c4.401,0.753,8.806,1.467,13.2,2.312c4.396,0.822,8.795,1.605,13.186,2.51l0.089,0.019c0.404,0.084,0.664,0.479,0.581,0.883
		c-0.076,0.372-0.416,0.621-0.785,0.595l-53.219-3.788l-26.607-1.926l-26.603-1.986l-106.41-7.946l1.421-0.948
		c-0.973,2.68-2.25,4.97-3.698,7.257c-1.464,2.249-3.113,4.375-4.931,6.345c-3.634,3.945-7.949,7.239-12.641,9.812
		c-2.36,1.259-4.799,2.368-7.308,3.284c-2.517,0.884-5.073,1.669-7.681,2.209c-2.596,0.599-5.232,0.962-7.869,1.256
		c-1.323,0.139-2.667,0.202-3.999,0.304l-3.939,0.103l-3.971-0.101c-1.322-0.103-2.647-0.165-3.967-0.303
		c-2.638-0.294-5.274-0.657-7.87-1.256c-2.607-0.54-5.164-1.325-7.68-2.209c-2.509-0.916-4.947-2.026-7.309-3.284
		c-4.691-2.574-9.007-5.868-12.641-9.813c-1.818-1.971-3.467-4.096-4.931-6.346c-1.449-2.286-2.726-4.577-3.699-7.257l1.423,0.95
		l-106.41,7.944l-26.603,1.986l-26.607,1.927l-53.219,3.786c-0.412,0.029-0.769-0.28-0.798-0.692
		c-0.027-0.378,0.232-0.71,0.594-0.785L5.694,327.703z"/>
	<path d="M217.681,263.65c-45.797,1.704-61.412,20.576-116.447,36.581c-40.627,11.815-72.053,14.499-72.053,14.499
		s46.833-0.666,103.167-21.666s81.014-21.185,97.567-18.004c19.1,3.67,21.1,26.67,29.102,29.084
		c7.282,2.196,10.275,13.92,10.275,13.92S269.291,261.73,217.681,263.65z"/>
	<path d="M437.348,300.231c-55.035-16.005-70.65-34.878-116.447-36.581c-51.61-1.92-51.61,54.414-51.61,54.414
		s2.993-11.725,10.274-13.92c8.002-2.414,10.002-25.414,29.104-29.084c16.553-3.181,41.232-2.997,97.566,18.004
		c56.334,21,103.166,21.666,103.166,21.666S477.975,312.047,437.348,300.231z"/>
	<path d="M257.625,314.73c0,0-6.333-4.666-8.667-9.333c-2.333-4.667-11.333-24-34-24.333c-22.667-0.334-37,10.333-56.333,14.666
		c-19.334,4.334-32.667,6.334-32.667,6.334s37.333-3.129,63.333-11.231s36.001-3.103,41.667,4.231
		C236.625,302.397,257.625,314.73,257.625,314.73z"/>
	<path d="M280.958,314.73c0,0,6.333-4.666,8.666-9.333c2.334-4.667,11.334-24,34-24.333c22.668-0.334,37,10.333,56.334,14.666
		c19.334,4.334,32.666,6.334,32.666,6.334s-37.332-3.129-63.332-11.231s-36.001-3.103-41.668,4.231
		C301.958,302.397,280.958,314.73,280.958,314.73z"/>
	<path d="M267.375,279.644c0,0-0.977-22.059-17.981-29.046c-14.454-5.939-37.436-2.284-57.322,3.44
		c-13.436,3.867-28.173,11.214-49.554,9.283c-24.43-2.205-39.058-12.166-39.058-12.166s6.756,9.053,27.375,14.151
		s45.241-0.872,59.397-4.722c12.11-3.293,52.473-12.531,67.75,3.403C267.41,273.821,267.375,279.644,267.375,279.644z"/>
	<path d="M271.207,279.644c0,0,0.977-22.059,17.981-29.046c14.454-5.939,37.437-2.284,57.321,3.44
		c13.437,3.867,28.174,11.214,49.554,9.283c24.43-2.205,39.059-12.166,39.059-12.166s-6.756,9.053-27.375,14.151
		c-20.618,5.099-45.24-0.872-59.397-4.722c-12.109-3.293-52.473-12.531-67.75,3.403
		C271.172,273.821,271.207,279.644,271.207,279.644z"/>
	<path d="M137.662,211.564c-7.667,44.5,40.333,39.333,84.416,26.921c10.662-3.002,19.455-4.612,30.417-1.421
		c9.863,2.872,11.638,9.831,14.556,21.538c0.791-12.297,1.3-25.421-13.192-28.936c-13.44-3.26-28.609,0.812-40.483,5.552
		c-12.251,4.892-32.51,8.801-45.88,5.513c-13.553-3.334-15.62-29.834-7-40c-13.637,11.583-10.834,22.348-9.887,32.333
		c-3.487-4.869-5.467-3.799-9-8.5C138.955,221.033,137.662,211.564,137.662,211.564z"/>
	<path d="M218.818,215.397c-10.837,1.841-14.323,1.035-14.139-8c0.251-12.366,21.65-21.648,23.766-31.93
		c1.973-9.59-4.267-19.469-8.657-22.109c3.149,14.431-8.188,30.378-16.62,40.27c-8.077-3.734-6.75-18.25-0.504-28.421
		c-15.72,3.648-17.733,25.126-8.233,37.671c-7,1.122-14.513-13.25-21.763-10.25c-3.725,1.542-5.75,5.5-5.75,5.5
		c16.21-4.113,23.75,31.25,0,25.25c5.5,8.687,24.847,6,27.68-11.833c1.736,13.98,14.479,14.018,29.553,7.811
		c12.75-5.25,34.236-6.503,41.046,11.876c1.452-22.024-13.073-21.217-23.718-21.683c-1.777-0.077-4.203-0.942-4.328-4.901
		c-0.095-3.009,1.499-12.216-5.25-16.5c-5.25-3.333-11.075,1.67-14.208,8.44c-0.806,1.741-2.468,7.95,0.534,11.669
		c2.3,2.849,7.716,2.016,7.716,2.016s-2.625-1.125-3.763-4.353c-0.839-2.379-0.928-9.821,2.986-11.464
		c5.152-2.161,7.499,1.438,7.319,4.941C232.151,205.897,227.651,213.897,218.818,215.397z"/>
	<path d="M399.431,211.564c7.668,44.5-40.332,39.333-84.415,26.921c-10.661-3.002-19.455-4.612-30.417-1.421
		c-9.863,2.872-11.639,9.831-14.557,21.538c-0.791-12.297-1.299-25.421,13.193-28.936c13.439-3.26,28.609,0.812,40.482,5.552
		c12.251,4.892,32.51,8.801,45.881,5.513c13.553-3.334,15.619-29.834,7-40c13.637,11.583,10.834,22.348,9.887,32.333
		c3.486-4.869,5.467-3.799,9-8.5C398.139,221.033,399.431,211.564,399.431,211.564z"/>
	<path d="M268.547,221.567c1.28-18.613,23.738-16.426,26.927-31.863c1.425-6.897-6.596-13.245-4.029-19.699
		c1.416-3.56,7.905-8.346,10.373-11.274c6.07-7.202-1.035-14.351-4.409-17.321c3.659,13.446-6.091,19.657-12.341,14.821
		c-1.825-1.412-0.5-6.096,0.827-7.954c-9.731,0.001-12.194,17.136-3.175,17.49c-1.522,4.281-6.955,4.572-10.649,3.377
		c2.56-3.475,3.965-7.802-0.284-13.417c-0.375,4.8,0.246,8.741-3.24,11.54c-3.485-2.799-2.865-6.74-3.24-11.54
		c-4.25,5.615-2.844,9.942-0.284,13.417c-3.694,1.195-9.127,0.904-10.649-3.377c9.019-0.354,6.557-17.489-3.175-17.49
		c1.327,1.858,2.652,6.542,0.827,7.954c-6.25,4.836-16-1.375-12.341-14.821c-3.374,2.971-10.479,10.119-4.409,17.321
		c2.468,2.929,8.957,7.715,10.373,11.274c2.567,6.454-5.454,12.802-4.028,19.699C244.81,205.142,267.267,202.954,268.547,221.567
		 M284.308,187.238c-1.66,5.02-9.373,8.717-12.348,13.532c-1.964,3.181-3.002,5.936-3.414,8.733
		c-0.412-2.798-1.45-5.553-3.414-8.733c-2.974-4.815-10.687-8.513-12.347-13.532c-3.079-9.312,9.788-9.681,15.761-14.271
		C274.52,177.558,287.386,177.927,284.308,187.238z"/>
	<path d="M318.276,215.397c10.837,1.841,14.323,1.035,14.14-8c-0.252-12.366-21.65-21.648-23.767-31.93
		c-1.974-9.59,4.267-19.469,8.657-22.109c-3.148,14.431,8.188,30.378,16.619,40.27c8.078-3.734,6.75-18.25,0.504-28.421
		c15.721,3.648,17.733,25.126,8.233,37.671c7,1.122,14.513-13.25,21.763-10.25c3.725,1.542,5.75,5.5,5.75,5.5
		c-16.209-4.113-23.75,31.25,0,25.25c-5.5,8.687-24.846,6-27.68-11.833c-1.736,13.98-14.479,14.018-29.553,7.811
		c-12.75-5.25-34.236-6.503-41.047,11.876c-1.451-22.024,13.074-21.217,23.719-21.683c1.777-0.077,4.203-0.942,4.328-4.901
		c0.096-3.009-1.498-12.216,5.25-16.5c5.25-3.333,11.074,1.67,14.209,8.44c0.806,1.741,2.467,7.95-0.534,11.669
		c-2.3,2.849-7.716,2.016-7.716,2.016s2.625-1.125,3.763-4.353c0.839-2.379,0.928-9.821-2.986-11.464
		c-5.152-2.161-7.499,1.438-7.319,4.941C304.943,205.897,309.443,213.897,318.276,215.397z"/>
	<path d="M121.764,283.263c-0.447-4.599-0.695-9.256-0.695-13.971c0-0.347,0.011-0.69,0.013-1.037
		c-6.147-2.183-12.027-4.91-17.77-7.924c-0.158,2.968-0.243,5.954-0.243,8.961c0,6.812,0.439,13.519,1.25,20.113
		C110.115,287.306,115.931,285.26,121.764,283.263z"/>
	<path d="M416.439,287.104c5.679,2.499,11.362,5.021,17.235,6.899c1.207-8.065,1.839-16.315,1.839-24.711
		c0-1.998-0.045-3.986-0.117-5.967c-5.594,2.23-11.813,3.128-17.918,3.987c0.011,0.66,0.035,1.316,0.035,1.979
		C417.513,275.32,417.142,281.262,416.439,287.104z"/>
	<path d="M405.875,326.775c-22.494,53.257-75.232,90.738-136.584,90.738c-60.683,0-112.957-36.66-135.86-88.991
		c-6.141,0.772-12.27,1.618-18.329,2.836c24.643,60.999,84.465,104.155,154.189,104.155c70.208,0,130.369-43.763,154.687-105.435
		C417.853,329.633,411.8,328.643,405.875,326.775z"/>
	<path d="M269.292,103.069c-82.755,0-151.549,60.798-164.135,140.068c0.896,1.098,1.853,2.157,2.859,3.173
		c4.518,2.504,9.174,4.418,14.058,5.796c8.545-73.663,71.301-131.037,147.218-131.037c76.605,0,139.823,58.416,147.449,133.043
		c6.128-2.481,11.821-5.972,16.815-10.328C421.247,164.194,352.275,103.069,269.292,103.069z"/>
</g>
<g id="Layer_2">
</g>
</svg>
